<svg width="169" height="40" viewBox="0 0 169 40" fill="none" xmlns="http://www.w3.org/2000/svg">
<path d="M18.0446 15.7804L36.0892 7.37561V30.6346L18.0446 40V15.7804Z" fill="#19110D"/>
<path d="M0 7.78723L18.0446 15.849V39.9999L0 30.6346V7.78723Z" fill="#B6A38C"/>
<path d="M18.0446 0L36.0892 7.37564L18.0446 16.1578L0 7.78731L18.0446 0Z" fill="#B67E4D"/>
<path d="M43.4972 15.593V13.8182H51.8594V15.593H48.7422V24H46.6143V15.593H43.4972ZM55.5694 24.1491C54.7839 24.1491 54.1078 23.9901 53.541 23.6719C52.9776 23.3504 52.5434 22.8963 52.2385 22.3097C51.9335 21.7197 51.7811 21.022 51.7811 20.2166C51.7811 19.4311 51.9335 18.7417 52.2385 18.1484C52.5434 17.5552 52.9726 17.0928 53.5261 16.7614C54.0829 16.4299 54.7359 16.2642 55.4849 16.2642C55.9887 16.2642 56.4577 16.3454 56.8919 16.5078C57.3294 16.6669 57.7105 16.9072 58.0353 17.2287C58.3635 17.5502 58.6187 17.9545 58.801 18.4418C58.9833 18.9257 59.0744 19.4924 59.0744 20.142V20.7237H52.6262V19.4112H57.0808C57.0808 19.1063 57.0145 18.8362 56.8819 18.6009C56.7493 18.3655 56.5654 18.1816 56.3301 18.049C56.0981 17.9131 55.8279 17.8452 55.5197 17.8452C55.1982 17.8452 54.9132 17.9197 54.6646 18.0689C54.4193 18.2147 54.2271 18.4119 54.0879 18.6605C53.9487 18.9058 53.8774 19.1792 53.8741 19.4808V20.7287C53.8741 21.1065 53.9437 21.433 54.0829 21.7081C54.2254 21.9832 54.426 22.1953 54.6845 22.3445C54.943 22.4936 55.2496 22.5682 55.6042 22.5682C55.8395 22.5682 56.055 22.535 56.2505 22.4688C56.4461 22.4025 56.6135 22.303 56.7527 22.1705C56.8919 22.0379 56.9979 21.8755 57.0708 21.6832L59.0297 21.8125C58.9302 22.2831 58.7264 22.6941 58.4181 23.0455C58.1132 23.3935 57.7188 23.6652 57.2349 23.8608C56.7543 24.053 56.1992 24.1491 55.5694 24.1491ZM63.9068 24.1491C63.1246 24.1491 62.4518 23.9834 61.8883 23.652C61.3282 23.3172 60.8973 22.8532 60.5957 22.2599C60.2974 21.6667 60.1483 20.9839 60.1483 20.2116C60.1483 19.4295 60.2991 18.7434 60.6007 18.1534C60.9056 17.5601 61.3381 17.0978 61.8983 16.7663C62.4584 16.4316 63.1246 16.2642 63.8968 16.2642C64.563 16.2642 65.1464 16.3852 65.6468 16.6271C66.1473 16.8691 66.5434 17.2088 66.835 17.6463C67.1267 18.0838 67.2875 18.5975 67.3173 19.1875H65.3187C65.2624 18.8063 65.1132 18.4998 64.8713 18.2678C64.6326 18.0324 64.3194 17.9148 63.9316 17.9148C63.6035 17.9148 63.3168 18.0043 63.0716 18.1832C62.8296 18.3589 62.6407 18.6158 62.5048 18.9538C62.3689 19.2919 62.301 19.7012 62.301 20.1818C62.301 20.669 62.3672 21.0833 62.4998 21.4247C62.6357 21.7661 62.8263 22.0263 63.0716 22.2053C63.3168 22.3842 63.6035 22.4737 63.9316 22.4737C64.1736 22.4737 64.3907 22.424 64.5829 22.3246C64.7785 22.2251 64.9392 22.081 65.0652 21.892C65.1944 21.6998 65.2789 21.4695 65.3187 21.201H67.3173C67.2842 21.7843 67.1251 22.2981 66.84 22.7422C66.5583 23.183 66.1689 23.5277 65.6717 23.7763C65.1745 24.0249 64.5862 24.1491 63.9068 24.1491ZM70.7912 19.5852V24H68.6733V13.8182H70.7315V17.7109H70.821C70.9934 17.2602 71.2718 16.9072 71.6562 16.652C72.0407 16.3935 72.523 16.2642 73.103 16.2642C73.6333 16.2642 74.0956 16.3802 74.4901 16.6122C74.8878 16.8409 75.196 17.1707 75.4148 17.6016C75.6368 18.0291 75.7462 18.5412 75.7429 19.1378V24H73.625V19.5156C73.6283 19.045 73.509 18.6787 73.267 18.4169C73.0284 18.1551 72.6937 18.0241 72.2628 18.0241C71.9744 18.0241 71.7192 18.0855 71.4972 18.2081C71.2784 18.3307 71.1061 18.5097 70.9801 18.745C70.8575 18.977 70.7945 19.2571 70.7912 19.5852ZM79.0304 24L76.117 13.8182H78.4686L80.1539 20.8928H80.2385L82.0978 13.8182H84.1113L85.9657 20.9077H86.0552L87.7406 13.8182H90.0922L87.1788 24H85.0808L83.1419 17.343H83.0623L81.1284 24H79.0304ZM93.8643 24.1491C93.0788 24.1491 92.4027 23.9901 91.8359 23.6719C91.2725 23.3504 90.8383 22.8963 90.5334 22.3097C90.2285 21.7197 90.076 21.022 90.076 20.2166C90.076 19.4311 90.2285 18.7417 90.5334 18.1484C90.8383 17.5552 91.2675 17.0928 91.821 16.7614C92.3778 16.4299 93.0308 16.2642 93.7798 16.2642C94.2836 16.2642 94.7526 16.3454 95.1868 16.5078C95.6243 16.6669 96.0054 16.9072 96.3303 17.2287C96.6584 17.5502 96.9136 17.9545 97.0959 18.4418C97.2782 18.9257 97.3693 19.4924 97.3693 20.142V20.7237H90.9212V19.4112H95.3757C95.3757 19.1063 95.3094 18.8362 95.1768 18.6009C95.0443 18.3655 94.8603 18.1816 94.625 18.049C94.393 17.9131 94.1229 17.8452 93.8146 17.8452C93.4931 17.8452 93.2081 17.9197 92.9595 18.0689C92.7143 18.2147 92.522 18.4119 92.3828 18.6605C92.2436 18.9058 92.1723 19.1792 92.169 19.4808V20.7287C92.169 21.1065 92.2386 21.433 92.3778 21.7081C92.5204 21.9832 92.7209 22.1953 92.9794 22.3445C93.2379 22.4936 93.5445 22.5682 93.8991 22.5682C94.1345 22.5682 94.3499 22.535 94.5455 22.4688C94.741 22.4025 94.9084 22.303 95.0476 22.1705C95.1868 22.0379 95.2929 21.8755 95.3658 21.6832L97.3246 21.8125C97.2251 22.2831 97.0213 22.6941 96.7131 23.0455C96.4081 23.3935 96.0137 23.6652 95.5298 23.8608C95.0492 24.053 94.4941 24.1491 93.8643 24.1491ZM98.7912 24V13.8182H100.909V17.6463H100.974C101.067 17.4408 101.201 17.232 101.376 17.0199C101.555 16.8045 101.787 16.6255 102.072 16.483C102.361 16.3371 102.719 16.2642 103.146 16.2642C103.703 16.2642 104.217 16.41 104.688 16.7017C105.158 16.9901 105.534 17.4259 105.816 18.0092C106.098 18.5893 106.239 19.3168 106.239 20.1918C106.239 21.0436 106.101 21.7628 105.826 22.3494C105.554 22.9328 105.183 23.3752 104.712 23.6768C104.245 23.9751 103.721 24.1243 103.141 24.1243C102.73 24.1243 102.381 24.0563 102.092 23.9205C101.807 23.7846 101.574 23.6139 101.391 23.4084C101.209 23.1996 101.07 22.9891 100.974 22.777H100.879V24H98.7912ZM100.864 20.1818C100.864 20.6359 100.927 21.032 101.053 21.37C101.179 21.7081 101.362 21.9716 101.6 22.1605C101.839 22.3461 102.129 22.4389 102.47 22.4389C102.815 22.4389 103.107 22.3445 103.345 22.1555C103.584 21.9633 103.764 21.6982 103.887 21.3601C104.013 21.0187 104.076 20.6259 104.076 20.1818C104.076 19.741 104.015 19.3532 103.892 19.0185C103.769 18.6837 103.589 18.4219 103.35 18.233C103.112 18.044 102.818 17.9496 102.47 17.9496C102.125 17.9496 101.834 18.0407 101.595 18.223C101.36 18.4053 101.179 18.6638 101.053 18.9986C100.927 19.3333 100.864 19.7277 100.864 20.1818ZM116.455 16.7464C116.415 16.3454 116.245 16.0339 115.943 15.8118C115.642 15.5897 115.232 15.4787 114.715 15.4787C114.364 15.4787 114.067 15.5284 113.825 15.6278C113.583 15.724 113.398 15.8582 113.268 16.0305C113.143 16.2029 113.08 16.3984 113.08 16.6172C113.073 16.7995 113.111 16.9586 113.194 17.0945C113.28 17.2304 113.398 17.348 113.547 17.4474C113.696 17.5436 113.868 17.6281 114.064 17.701C114.259 17.7706 114.468 17.8303 114.69 17.88L115.605 18.0987C116.049 18.1982 116.457 18.3307 116.828 18.4964C117.199 18.6622 117.521 18.866 117.793 19.108C118.064 19.3499 118.275 19.6349 118.424 19.9631C118.576 20.2912 118.654 20.6674 118.658 21.0916C118.654 21.7147 118.495 22.255 118.18 22.7124C117.869 23.1664 117.418 23.5194 116.828 23.7713C116.241 24.0199 115.534 24.1442 114.705 24.1442C113.883 24.1442 113.167 24.0182 112.558 23.7663C111.951 23.5144 111.477 23.1416 111.136 22.6477C110.798 22.1506 110.62 21.5357 110.604 20.8033H112.687C112.71 21.1446 112.808 21.4297 112.98 21.6584C113.156 21.8838 113.389 22.0545 113.681 22.1705C113.976 22.2831 114.309 22.3395 114.68 22.3395C115.045 22.3395 115.362 22.2865 115.63 22.1804C115.902 22.0743 116.112 21.9268 116.261 21.7379C116.411 21.549 116.485 21.3319 116.485 21.0866C116.485 20.858 116.417 20.6657 116.281 20.5099C116.149 20.3542 115.953 20.2216 115.695 20.1122C115.439 20.0028 115.126 19.9034 114.755 19.8139L113.646 19.5355C112.788 19.3267 112.11 19.0002 111.613 18.5561C111.116 18.112 110.869 17.5137 110.872 16.7614C110.869 16.1449 111.033 15.6063 111.364 15.1456C111.699 14.6849 112.158 14.3253 112.741 14.0668C113.325 13.8082 113.988 13.679 114.73 13.679C115.486 13.679 116.145 13.8082 116.709 14.0668C117.276 14.3253 117.716 14.6849 118.031 15.1456C118.346 15.6063 118.509 16.1399 118.518 16.7464H116.455ZM123.516 24.1491C122.744 24.1491 122.076 23.9851 121.513 23.657C120.952 23.3255 120.52 22.8648 120.215 22.2749C119.91 21.6816 119.758 20.9938 119.758 20.2116C119.758 19.4228 119.91 18.7334 120.215 18.1435C120.52 17.5502 120.952 17.0895 121.513 16.7614C122.076 16.4299 122.744 16.2642 123.516 16.2642C124.288 16.2642 124.955 16.4299 125.515 16.7614C126.078 17.0895 126.512 17.5502 126.817 18.1435C127.122 18.7334 127.275 19.4228 127.275 20.2116C127.275 20.9938 127.122 21.6816 126.817 22.2749C126.512 22.8648 126.078 23.3255 125.515 23.657C124.955 23.9851 124.288 24.1491 123.516 24.1491ZM123.526 22.5085C123.877 22.5085 124.171 22.4091 124.406 22.2102C124.641 22.008 124.819 21.733 124.938 21.3849C125.061 21.0369 125.122 20.6409 125.122 20.1967C125.122 19.7526 125.061 19.3565 124.938 19.0085C124.819 18.6605 124.641 18.3854 124.406 18.1832C124.171 17.9811 123.877 17.88 123.526 17.88C123.171 17.88 122.873 17.9811 122.631 18.1832C122.393 18.3854 122.212 18.6605 122.089 19.0085C121.97 19.3565 121.91 19.7526 121.91 20.1967C121.91 20.6409 121.97 21.0369 122.089 21.3849C122.212 21.733 122.393 22.008 122.631 22.2102C122.873 22.4091 123.171 22.5085 123.526 22.5085ZM130.77 13.8182V24H128.652V13.8182H130.77ZM137.363 20.7486V16.3636H139.481V24H137.448V22.6129H137.368C137.196 23.0604 136.909 23.42 136.508 23.6918C136.11 23.9635 135.625 24.0994 135.051 24.0994C134.541 24.0994 134.092 23.9834 133.704 23.7514C133.316 23.5194 133.013 23.1896 132.794 22.7621C132.579 22.3345 132.47 21.8224 132.466 21.2259V16.3636H134.584V20.848C134.587 21.2988 134.708 21.6551 134.947 21.9169C135.186 22.1787 135.506 22.3097 135.907 22.3097C136.162 22.3097 136.4 22.2517 136.623 22.1357C136.845 22.0163 137.024 21.8407 137.159 21.6087C137.299 21.3767 137.367 21.09 137.363 20.7486ZM145.237 16.3636V17.9545H140.638V16.3636H145.237ZM141.682 14.5341H143.8V21.6534C143.8 21.849 143.83 22.0014 143.89 22.1108C143.949 22.2169 144.032 22.2914 144.138 22.3345C144.248 22.3776 144.374 22.3991 144.516 22.3991C144.616 22.3991 144.715 22.3909 144.814 22.3743C144.914 22.3544 144.99 22.3395 145.043 22.3295L145.376 23.9055C145.27 23.9387 145.121 23.9768 144.929 24.0199C144.737 24.0663 144.503 24.0945 144.228 24.1044C143.717 24.1243 143.27 24.0563 142.885 23.9006C142.504 23.7448 142.208 23.5028 141.996 23.1747C141.783 22.8466 141.679 22.4323 141.682 21.9318V14.5341ZM146.617 24V16.3636H148.735V24H146.617ZM147.681 15.3793C147.366 15.3793 147.096 15.2749 146.87 15.0661C146.648 14.8539 146.537 14.6004 146.537 14.3054C146.537 14.0137 146.648 13.7635 146.87 13.5547C147.096 13.3426 147.366 13.2365 147.681 13.2365C147.995 13.2365 148.264 13.3426 148.486 13.5547C148.711 13.7635 148.824 14.0137 148.824 14.3054C148.824 14.6004 148.711 14.8539 148.486 15.0661C148.264 15.2749 147.995 15.3793 147.681 15.3793ZM153.881 24.1491C153.109 24.1491 152.441 23.9851 151.878 23.657C151.318 23.3255 150.885 22.8648 150.58 22.2749C150.275 21.6816 150.123 20.9938 150.123 20.2116C150.123 19.4228 150.275 18.7334 150.58 18.1435C150.885 17.5502 151.318 17.0895 151.878 16.7614C152.441 16.4299 153.109 16.2642 153.881 16.2642C154.654 16.2642 155.32 16.4299 155.88 16.7614C156.443 17.0895 156.878 17.5502 157.183 18.1435C157.487 18.7334 157.64 19.4228 157.64 20.2116C157.64 20.9938 157.487 21.6816 157.183 22.2749C156.878 22.8648 156.443 23.3255 155.88 23.657C155.32 23.9851 154.654 24.1491 153.881 24.1491ZM153.891 22.5085C154.243 22.5085 154.536 22.4091 154.771 22.2102C155.007 22.008 155.184 21.733 155.303 21.3849C155.426 21.0369 155.487 20.6409 155.487 20.1967C155.487 19.7526 155.426 19.3565 155.303 19.0085C155.184 18.6605 155.007 18.3854 154.771 18.1832C154.536 17.9811 154.243 17.88 153.891 17.88C153.537 17.88 153.238 17.9811 152.996 18.1832C152.758 18.3854 152.577 18.6605 152.455 19.0085C152.335 19.3565 152.276 19.7526 152.276 20.1967C152.276 20.6409 152.335 21.0369 152.455 21.3849C152.577 21.733 152.758 22.008 152.996 22.2102C153.238 22.4091 153.537 22.5085 153.891 22.5085ZM161.135 19.5852V24H159.017V16.3636H161.036V17.7109H161.125C161.294 17.2668 161.577 16.9155 161.975 16.657C162.373 16.3951 162.855 16.2642 163.422 16.2642C163.952 16.2642 164.415 16.3802 164.809 16.6122C165.203 16.8442 165.51 17.1757 165.729 17.6065C165.947 18.0341 166.057 18.5445 166.057 19.1378V24H163.939V19.5156C163.942 19.0483 163.823 18.6837 163.581 18.4219C163.339 18.1567 163.006 18.0241 162.582 18.0241C162.297 18.0241 162.045 18.0855 161.826 18.2081C161.611 18.3307 161.442 18.5097 161.319 18.745C161.2 18.977 161.138 19.2571 161.135 19.5852Z" fill="black"/>
</svg>
