<svg width="566" height="97" viewBox="0 0 566 97" fill="none" xmlns="http://www.w3.org/2000/svg">
<mask id="path-1-outside-1_2019_10" maskUnits="userSpaceOnUse" x="0" y="0" width="566" height="97" fill="black">
<rect fill="white" width="566" height="97"/>
<path fill-rule="evenodd" clip-rule="evenodd" d="M393.869 27.0909L383.489 69.4545H382.67L364.716 1H348.216L330.307 69.4091H329.443L312.67 1H294.534L320.807 94.0909H337.443L356.125 28.7727H356.852L375.489 94.0909H392.125L411.034 27.0909H393.869ZM1 1V15.1364H29.7727V94.0909H46.5V15.1364H75.2727V1H1ZM91.5114 91.0909C96.6023 94 102.648 95.4546 109.648 95.4546C115.072 95.4546 119.89 94.6364 124.102 93C128.314 91.3333 131.769 89 134.466 86C137.193 82.9697 139.042 79.4242 140.011 75.3636L124.648 73.6364C123.92 75.6061 122.845 77.2576 121.42 78.5909C119.996 79.9242 118.314 80.9394 116.375 81.6364C114.436 82.303 112.269 82.6364 109.875 82.6364C106.299 82.6364 103.178 81.8788 100.511 80.3636C97.8447 78.8182 95.7689 76.6061 94.2841 73.7273C92.8493 70.9163 92.1078 67.5679 92.0594 63.6818H140.693V58.6364C140.693 52.5152 139.845 47.2424 138.148 42.8182C136.451 38.3636 134.117 34.697 131.148 31.8182C128.208 28.9394 124.814 26.8182 120.966 25.4545C117.148 24.0606 113.087 23.3636 108.784 23.3636C102.117 23.3636 96.3144 24.8939 91.375 27.9545C86.4356 30.9848 82.5871 35.2273 79.8295 40.6818C77.1023 46.1061 75.7386 52.4091 75.7386 59.5909C75.7386 66.8939 77.1023 73.2424 79.8295 78.6364C82.5568 84 86.4508 88.1515 91.5114 91.0909ZM92.0904 52.5909C92.2485 49.8556 92.9494 47.3252 94.1932 45C95.6174 42.3636 97.6023 40.2424 100.148 38.6364C102.693 37 105.648 36.1818 109.011 36.1818C112.163 36.1818 114.92 36.8939 117.284 38.3182C119.678 39.7424 121.542 41.697 122.875 44.1818C124.208 46.6364 124.89 49.4394 124.92 52.5909H92.0904ZM167.114 90.8636C172.114 93.9242 178.098 95.4546 185.068 95.4546C190.917 95.4546 196.008 94.3939 200.341 92.2727C204.674 90.1212 208.098 87.1515 210.614 83.3636C213.129 79.5455 214.583 75.1667 214.977 70.2273H199.25C198.765 72.7424 197.871 74.8788 196.568 76.6364C195.265 78.3939 193.644 79.7424 191.705 80.6818C189.795 81.5909 187.629 82.0455 185.205 82.0455C181.78 82.0455 178.795 81.1364 176.25 79.3182C173.735 77.4697 171.78 74.8485 170.386 71.4545C168.992 68.0303 168.295 63.9394 168.295 59.1818C168.295 54.4848 168.992 50.4545 170.386 47.0909C171.811 43.7273 173.795 41.1515 176.341 39.3636C178.886 37.5455 181.841 36.6364 185.205 36.6364C189.174 36.6364 192.341 37.7727 194.705 40.0455C197.098 42.2879 198.614 45.0909 199.25 48.4545H214.977C214.614 43.4242 213.129 39.0303 210.523 35.2727C207.917 31.4848 204.417 28.5606 200.023 26.5C195.659 24.4091 190.644 23.3636 184.977 23.3636C178.159 23.3636 172.25 24.8939 167.25 27.9545C162.28 30.9848 158.432 35.2273 155.705 40.6818C152.977 46.1061 151.614 52.3636 151.614 59.4545C151.614 66.5152 152.947 72.7576 155.614 78.1818C158.311 83.5758 162.144 87.803 167.114 90.8636ZM228.489 94.0909H244.943V53.1818C244.943 49.8182 245.58 46.9545 246.852 44.5909C248.155 42.2273 249.943 40.4242 252.216 39.1818C254.519 37.9091 257.125 37.2727 260.034 37.2727C264.367 37.2727 267.731 38.5909 270.125 41.2273C272.549 43.8333 273.761 47.4848 273.761 52.1818V94.0909H290.216V49.6364C290.216 44 289.216 39.2273 287.216 35.3182C285.246 31.4091 282.458 28.4394 278.852 26.4091C275.246 24.3788 271.019 23.3636 266.17 23.3636C260.837 23.3636 256.443 24.5152 252.989 26.8182C249.564 29.0909 247.034 32.197 245.398 36.1364H244.58V1H228.489V94.0909ZM435.011 91.0909C440.102 94 446.148 95.4546 453.148 95.4546C458.572 95.4546 463.39 94.6364 467.602 93C471.814 91.3333 475.269 89 477.966 86C480.693 82.9697 482.542 79.4242 483.511 75.3636L468.148 73.6364C467.42 75.6061 466.345 77.2576 464.92 78.5909C463.496 79.9242 461.814 80.9394 459.875 81.6364C457.936 82.303 455.769 82.6364 453.375 82.6364C449.799 82.6364 446.678 81.8788 444.011 80.3636C441.345 78.8182 439.269 76.6061 437.784 73.7273C436.349 70.9163 435.608 67.5679 435.559 63.6818H484.193V58.6364C484.193 52.5152 483.345 47.2424 481.648 42.8182C479.951 38.3636 477.617 34.697 474.648 31.8182C471.708 28.9394 468.314 26.8182 464.466 25.4545C460.648 24.0606 456.587 23.3636 452.284 23.3636C445.617 23.3636 439.814 24.8939 434.875 27.9545C429.936 30.9848 426.087 35.2273 423.33 40.6818C420.602 46.1061 419.239 52.4091 419.239 59.5909C419.239 66.8939 420.602 73.2424 423.33 78.6364C426.057 84 429.951 88.1515 435.011 91.0909ZM435.59 52.5909C435.749 49.8556 436.449 47.3252 437.693 45C439.117 42.3636 441.102 40.2424 443.648 38.6364C446.193 37 449.148 36.1818 452.511 36.1818C455.663 36.1818 458.42 36.8939 460.784 38.3182C463.178 39.7424 465.042 41.697 466.375 44.1818C467.708 46.6364 468.39 49.4394 468.42 52.5909H435.59ZM498.841 1V94.0909H515.023V83.0909H515.977C516.856 84.7879 518.083 86.5909 519.659 88.5C521.265 90.3788 523.386 91.9848 526.023 93.3182C528.659 94.6515 531.977 95.3182 535.977 95.3182C541.462 95.3182 546.371 93.9091 550.705 91.0909C555.038 88.2727 558.462 84.1818 560.977 78.8182C563.492 73.4545 564.75 66.9394 564.75 59.2727C564.75 51.5152 563.462 44.9697 560.886 39.6364C558.341 34.2727 554.886 30.2273 550.523 27.5C546.189 24.7424 541.326 23.3636 535.932 23.3636C531.841 23.3636 528.477 24.0606 525.841 25.4545C523.205 26.8182 521.114 28.4697 519.568 30.4091C518.023 32.3182 516.826 34.1212 515.977 35.8182H515.295V1H498.841ZM516.886 71.0455C515.614 67.6515 514.977 63.697 514.977 59.1818C514.977 54.6667 515.599 50.7424 516.841 47.4091C518.114 44.0758 519.977 41.4848 522.432 39.6364C524.886 37.7879 527.871 36.8636 531.386 36.8636C535.053 36.8636 538.114 37.8182 540.568 39.7273C543.023 41.6364 544.871 44.2727 546.114 47.6364C547.356 51 547.977 54.8485 547.977 59.1818C547.977 63.5455 547.341 67.4394 546.068 70.8636C544.826 74.2576 542.977 76.9394 540.523 78.9091C538.068 80.8485 535.023 81.8182 531.386 81.8182C527.901 81.8182 524.932 80.8788 522.477 79C520.053 77.0909 518.189 74.4394 516.886 71.0455Z"/>
</mask>
<path fill-rule="evenodd" clip-rule="evenodd" d="M393.869 27.0909L383.489 69.4545H382.67L364.716 1H348.216L330.307 69.4091H329.443L312.67 1H294.534L320.807 94.0909H337.443L356.125 28.7727H356.852L375.489 94.0909H392.125L411.034 27.0909H393.869ZM1 1V15.1364H29.7727V94.0909H46.5V15.1364H75.2727V1H1ZM91.5114 91.0909C96.6023 94 102.648 95.4546 109.648 95.4546C115.072 95.4546 119.89 94.6364 124.102 93C128.314 91.3333 131.769 89 134.466 86C137.193 82.9697 139.042 79.4242 140.011 75.3636L124.648 73.6364C123.92 75.6061 122.845 77.2576 121.42 78.5909C119.996 79.9242 118.314 80.9394 116.375 81.6364C114.436 82.303 112.269 82.6364 109.875 82.6364C106.299 82.6364 103.178 81.8788 100.511 80.3636C97.8447 78.8182 95.7689 76.6061 94.2841 73.7273C92.8493 70.9163 92.1078 67.5679 92.0594 63.6818H140.693V58.6364C140.693 52.5152 139.845 47.2424 138.148 42.8182C136.451 38.3636 134.117 34.697 131.148 31.8182C128.208 28.9394 124.814 26.8182 120.966 25.4545C117.148 24.0606 113.087 23.3636 108.784 23.3636C102.117 23.3636 96.3144 24.8939 91.375 27.9545C86.4356 30.9848 82.5871 35.2273 79.8295 40.6818C77.1023 46.1061 75.7386 52.4091 75.7386 59.5909C75.7386 66.8939 77.1023 73.2424 79.8295 78.6364C82.5568 84 86.4508 88.1515 91.5114 91.0909ZM92.0904 52.5909C92.2485 49.8556 92.9494 47.3252 94.1932 45C95.6174 42.3636 97.6023 40.2424 100.148 38.6364C102.693 37 105.648 36.1818 109.011 36.1818C112.163 36.1818 114.92 36.8939 117.284 38.3182C119.678 39.7424 121.542 41.697 122.875 44.1818C124.208 46.6364 124.89 49.4394 124.92 52.5909H92.0904ZM167.114 90.8636C172.114 93.9242 178.098 95.4546 185.068 95.4546C190.917 95.4546 196.008 94.3939 200.341 92.2727C204.674 90.1212 208.098 87.1515 210.614 83.3636C213.129 79.5455 214.583 75.1667 214.977 70.2273H199.25C198.765 72.7424 197.871 74.8788 196.568 76.6364C195.265 78.3939 193.644 79.7424 191.705 80.6818C189.795 81.5909 187.629 82.0455 185.205 82.0455C181.78 82.0455 178.795 81.1364 176.25 79.3182C173.735 77.4697 171.78 74.8485 170.386 71.4545C168.992 68.0303 168.295 63.9394 168.295 59.1818C168.295 54.4848 168.992 50.4545 170.386 47.0909C171.811 43.7273 173.795 41.1515 176.341 39.3636C178.886 37.5455 181.841 36.6364 185.205 36.6364C189.174 36.6364 192.341 37.7727 194.705 40.0455C197.098 42.2879 198.614 45.0909 199.25 48.4545H214.977C214.614 43.4242 213.129 39.0303 210.523 35.2727C207.917 31.4848 204.417 28.5606 200.023 26.5C195.659 24.4091 190.644 23.3636 184.977 23.3636C178.159 23.3636 172.25 24.8939 167.25 27.9545C162.28 30.9848 158.432 35.2273 155.705 40.6818C152.977 46.1061 151.614 52.3636 151.614 59.4545C151.614 66.5152 152.947 72.7576 155.614 78.1818C158.311 83.5758 162.144 87.803 167.114 90.8636ZM228.489 94.0909H244.943V53.1818C244.943 49.8182 245.58 46.9545 246.852 44.5909C248.155 42.2273 249.943 40.4242 252.216 39.1818C254.519 37.9091 257.125 37.2727 260.034 37.2727C264.367 37.2727 267.731 38.5909 270.125 41.2273C272.549 43.8333 273.761 47.4848 273.761 52.1818V94.0909H290.216V49.6364C290.216 44 289.216 39.2273 287.216 35.3182C285.246 31.4091 282.458 28.4394 278.852 26.4091C275.246 24.3788 271.019 23.3636 266.17 23.3636C260.837 23.3636 256.443 24.5152 252.989 26.8182C249.564 29.0909 247.034 32.197 245.398 36.1364H244.58V1H228.489V94.0909ZM435.011 91.0909C440.102 94 446.148 95.4546 453.148 95.4546C458.572 95.4546 463.39 94.6364 467.602 93C471.814 91.3333 475.269 89 477.966 86C480.693 82.9697 482.542 79.4242 483.511 75.3636L468.148 73.6364C467.42 75.6061 466.345 77.2576 464.92 78.5909C463.496 79.9242 461.814 80.9394 459.875 81.6364C457.936 82.303 455.769 82.6364 453.375 82.6364C449.799 82.6364 446.678 81.8788 444.011 80.3636C441.345 78.8182 439.269 76.6061 437.784 73.7273C436.349 70.9163 435.608 67.5679 435.559 63.6818H484.193V58.6364C484.193 52.5152 483.345 47.2424 481.648 42.8182C479.951 38.3636 477.617 34.697 474.648 31.8182C471.708 28.9394 468.314 26.8182 464.466 25.4545C460.648 24.0606 456.587 23.3636 452.284 23.3636C445.617 23.3636 439.814 24.8939 434.875 27.9545C429.936 30.9848 426.087 35.2273 423.33 40.6818C420.602 46.1061 419.239 52.4091 419.239 59.5909C419.239 66.8939 420.602 73.2424 423.33 78.6364C426.057 84 429.951 88.1515 435.011 91.0909ZM435.59 52.5909C435.749 49.8556 436.449 47.3252 437.693 45C439.117 42.3636 441.102 40.2424 443.648 38.6364C446.193 37 449.148 36.1818 452.511 36.1818C455.663 36.1818 458.42 36.8939 460.784 38.3182C463.178 39.7424 465.042 41.697 466.375 44.1818C467.708 46.6364 468.39 49.4394 468.42 52.5909H435.59ZM498.841 1V94.0909H515.023V83.0909H515.977C516.856 84.7879 518.083 86.5909 519.659 88.5C521.265 90.3788 523.386 91.9848 526.023 93.3182C528.659 94.6515 531.977 95.3182 535.977 95.3182C541.462 95.3182 546.371 93.9091 550.705 91.0909C555.038 88.2727 558.462 84.1818 560.977 78.8182C563.492 73.4545 564.75 66.9394 564.75 59.2727C564.75 51.5152 563.462 44.9697 560.886 39.6364C558.341 34.2727 554.886 30.2273 550.523 27.5C546.189 24.7424 541.326 23.3636 535.932 23.3636C531.841 23.3636 528.477 24.0606 525.841 25.4545C523.205 26.8182 521.114 28.4697 519.568 30.4091C518.023 32.3182 516.826 34.1212 515.977 35.8182H515.295V1H498.841ZM516.886 71.0455C515.614 67.6515 514.977 63.697 514.977 59.1818C514.977 54.6667 515.599 50.7424 516.841 47.4091C518.114 44.0758 519.977 41.4848 522.432 39.6364C524.886 37.7879 527.871 36.8636 531.386 36.8636C535.053 36.8636 538.114 37.8182 540.568 39.7273C543.023 41.6364 544.871 44.2727 546.114 47.6364C547.356 51 547.977 54.8485 547.977 59.1818C547.977 63.5455 547.341 67.4394 546.068 70.8636C544.826 74.2576 542.977 76.9394 540.523 78.9091C538.068 80.8485 535.023 81.8182 531.386 81.8182C527.901 81.8182 524.932 80.8788 522.477 79C520.053 77.0909 518.189 74.4394 516.886 71.0455Z" fill="white"/>
<path d="M383.489 69.4545V70.4545H384.273L384.46 69.6925L383.489 69.4545ZM393.869 27.0909V26.0909H393.084L392.897 26.8529L393.869 27.0909ZM382.67 69.4545L381.703 69.7082L381.899 70.4545H382.67V69.4545ZM364.716 1L365.683 0.746297L365.487 0H364.716V1ZM348.216 1V0H347.444L347.249 0.746741L348.216 1ZM330.307 69.4091V70.4091H331.079L331.274 69.6624L330.307 69.4091ZM329.443 69.4091L328.472 69.6472L328.659 70.4091H329.443V69.4091ZM312.67 1L313.642 0.76187L313.455 0H312.67V1ZM294.534 1V0H293.213L293.572 1.27162L294.534 1ZM320.807 94.0909L319.844 94.3625L320.05 95.0909H320.807V94.0909ZM337.443 94.0909V95.0909H338.197L338.405 94.3659L337.443 94.0909ZM356.125 28.7727V27.7727H355.371L355.164 28.4977L356.125 28.7727ZM356.852 28.7727L357.814 28.4984L357.607 27.7727H356.852V28.7727ZM375.489 94.0909L374.527 94.3653L374.734 95.0909H375.489V94.0909ZM392.125 94.0909V95.0909H392.882L393.087 94.3625L392.125 94.0909ZM411.034 27.0909L411.997 27.3625L412.355 26.0909H411.034V27.0909ZM1 15.1364H0V16.1364H1V15.1364ZM1 1V0H0V1H1ZM29.7727 15.1364H30.7727V14.1364H29.7727V15.1364ZM29.7727 94.0909H28.7727V95.0909H29.7727V94.0909ZM46.5 94.0909V95.0909H47.5V94.0909H46.5ZM46.5 15.1364V14.1364H45.5V15.1364H46.5ZM75.2727 15.1364V16.1364H76.2727V15.1364H75.2727ZM75.2727 1H76.2727V0H75.2727V1ZM91.5114 91.0909L91.0091 91.9557L91.0152 91.9592L91.5114 91.0909ZM124.102 93L124.464 93.9321L124.47 93.9299L124.102 93ZM134.466 86L133.723 85.331L133.722 85.3314L134.466 86ZM140.011 75.3636L140.984 75.5959L141.247 74.4962L140.123 74.3699L140.011 75.3636ZM124.648 73.6364L124.759 72.6426L123.981 72.5551L123.71 73.29L124.648 73.6364ZM121.42 78.5909L122.104 79.3209L122.104 79.3209L121.42 78.5909ZM116.375 81.6364L116.7 82.5821L116.713 82.5774L116.375 81.6364ZM100.511 80.3636L100.01 81.2289L100.017 81.2331L100.511 80.3636ZM94.2841 73.7273L93.3934 74.1819L93.3953 74.1857L94.2841 73.7273ZM92.0594 63.6818V62.6818H91.0468L91.0594 63.6943L92.0594 63.6818ZM140.693 63.6818V64.6818H141.693V63.6818H140.693ZM138.148 42.8182L137.213 43.1742L137.214 43.1763L138.148 42.8182ZM131.148 31.8182L130.448 32.5326L130.452 32.5362L131.148 31.8182ZM120.966 25.4545L120.623 26.3939L120.632 26.3971L120.966 25.4545ZM91.375 27.9545L91.8979 28.8069L91.9017 28.8046L91.375 27.9545ZM79.8295 40.6818L78.9371 40.2306L78.9361 40.2326L79.8295 40.6818ZM79.8295 78.6364L78.9371 79.0876L78.9382 79.0896L79.8295 78.6364ZM94.1932 45L93.3134 44.5247L93.3114 44.5283L94.1932 45ZM92.0904 52.5909L91.092 52.5332L91.0309 53.5909H92.0904V52.5909ZM100.148 38.6364L100.681 39.4821L100.688 39.4775L100.148 38.6364ZM117.284 38.3182L116.768 39.1747L116.773 39.1776L117.284 38.3182ZM122.875 44.1818L121.994 44.6546L121.996 44.6592L122.875 44.1818ZM124.92 52.5909V53.5909H125.93L125.92 52.5813L124.92 52.5909ZM167.114 90.8636L166.589 91.7151L166.592 91.7165L167.114 90.8636ZM200.341 92.2727L200.781 93.1709L200.786 93.1684L200.341 92.2727ZM210.614 83.3636L211.447 83.9168L211.449 83.9137L210.614 83.3636ZM214.977 70.2273L215.974 70.3068L216.06 69.2273H214.977V70.2273ZM199.25 70.2273V69.2273H198.424L198.268 70.038L199.25 70.2273ZM196.568 76.6364L195.765 76.0408L195.765 76.0408L196.568 76.6364ZM191.705 80.6818L192.134 81.5847L192.14 81.5818L191.705 80.6818ZM176.25 79.3182L175.658 80.124L175.669 80.1319L176.25 79.3182ZM170.386 71.4545L169.46 71.8316L169.461 71.8345L170.386 71.4545ZM170.386 47.0909L169.465 46.701L169.463 46.7081L170.386 47.0909ZM176.341 39.3636L176.916 40.182L176.922 40.1774L176.341 39.3636ZM194.705 40.0455L194.011 40.7663L194.021 40.7753L194.705 40.0455ZM199.25 48.4545L198.267 48.6404L198.421 49.4545H199.25V48.4545ZM214.977 48.4545V49.4545H216.052L215.975 48.3824L214.977 48.4545ZM210.523 35.2727L209.699 35.8395L209.701 35.8426L210.523 35.2727ZM200.023 26.5L199.591 27.4018L199.598 27.4054L200.023 26.5ZM167.25 27.9545L167.771 28.8083L167.772 28.8074L167.25 27.9545ZM155.705 40.6818L156.598 41.131L156.599 41.129L155.705 40.6818ZM155.614 78.1818L154.716 78.623L154.719 78.629L155.614 78.1818ZM244.943 94.0909V95.0909H245.943V94.0909H244.943ZM228.489 94.0909H227.489V95.0909H228.489V94.0909ZM246.852 44.5909L245.976 44.1081L245.972 44.1168L246.852 44.5909ZM252.216 39.1818L252.696 40.0593L252.7 40.0571L252.216 39.1818ZM270.125 41.2273L269.385 41.8996L269.393 41.9084L270.125 41.2273ZM273.761 94.0909H272.761V95.0909H273.761V94.0909ZM290.216 94.0909V95.0909H291.216V94.0909H290.216ZM287.216 35.3182L286.323 35.7682L286.326 35.7737L287.216 35.3182ZM278.852 26.4091L278.362 27.2805L278.362 27.2805L278.852 26.4091ZM252.989 26.8182L253.542 27.6514L253.543 27.6502L252.989 26.8182ZM245.398 36.1364V37.1364H246.065L246.321 36.52L245.398 36.1364ZM244.58 36.1364H243.58V37.1364H244.58V36.1364ZM244.58 1H245.58V0H244.58V1ZM228.489 1V0H227.489V1H228.489ZM435.011 91.0909L434.509 91.9557L434.515 91.9592L435.011 91.0909ZM467.602 93L467.964 93.9321L467.97 93.9299L467.602 93ZM477.966 86L477.223 85.331L477.222 85.3315L477.966 86ZM483.511 75.3636L484.484 75.5959L484.747 74.4962L483.623 74.3699L483.511 75.3636ZM468.148 73.6364L468.259 72.6426L467.481 72.5551L467.21 73.29L468.148 73.6364ZM464.92 78.5909L464.237 77.8609L464.237 77.8609L464.92 78.5909ZM459.875 81.6364L460.2 82.5821L460.213 82.5774L459.875 81.6364ZM444.011 80.3636L443.51 81.2289L443.517 81.2331L444.011 80.3636ZM437.784 73.7273L436.893 74.1819L436.895 74.1857L437.784 73.7273ZM435.559 63.6818V62.6818H434.547L434.559 63.6943L435.559 63.6818ZM484.193 63.6818V64.6818H485.193V63.6818H484.193ZM481.648 42.8182L480.713 43.1742L480.714 43.1763L481.648 42.8182ZM474.648 31.8182L473.948 32.5326L473.952 32.5362L474.648 31.8182ZM464.466 25.4545L464.123 26.3939L464.132 26.3971L464.466 25.4545ZM434.875 27.9545L435.398 28.8069L435.402 28.8046L434.875 27.9545ZM423.33 40.6818L422.437 40.2306L422.436 40.2326L423.33 40.6818ZM423.33 78.6364L422.437 79.0876L422.438 79.0896L423.33 78.6364ZM437.693 45L436.813 44.5247L436.811 44.5284L437.693 45ZM435.59 52.5909L434.592 52.5332L434.531 53.5909H435.59V52.5909ZM443.648 38.6364L444.181 39.4821L444.188 39.4775L443.648 38.6364ZM460.784 38.3182L460.268 39.1747L460.273 39.1776L460.784 38.3182ZM466.375 44.1818L465.494 44.6546L465.496 44.6592L466.375 44.1818ZM468.42 52.5909V53.5909H469.43L469.42 52.5813L468.42 52.5909ZM498.841 94.0909H497.841V95.0909H498.841V94.0909ZM498.841 1V0H497.841V1H498.841ZM515.023 94.0909V95.0909H516.023V94.0909H515.023ZM515.023 83.0909V82.0909H514.023V83.0909H515.023ZM515.977 83.0909L516.865 82.6311L516.586 82.0909H515.977V83.0909ZM519.659 88.5L518.888 89.1366L518.893 89.1432L518.899 89.1498L519.659 88.5ZM526.023 93.3182L525.571 94.2105L525.571 94.2106L526.023 93.3182ZM550.705 91.0909L550.159 90.2526L550.159 90.2526L550.705 91.0909ZM560.977 78.8182L561.883 79.2428L561.883 79.2427L560.977 78.8182ZM560.886 39.6364L559.983 40.0651L559.986 40.0713L560.886 39.6364ZM550.523 27.5L549.986 28.3437L549.993 28.348L550.523 27.5ZM525.841 25.4545L526.3 26.3428L526.308 26.3386L525.841 25.4545ZM519.568 30.4091L520.345 31.0383L520.35 31.0323L519.568 30.4091ZM515.977 35.8182V36.8182H516.595L516.872 36.2654L515.977 35.8182ZM515.295 35.8182H514.295V36.8182H515.295V35.8182ZM515.295 1H516.295V0H515.295V1ZM516.886 71.0455L515.95 71.3966L515.953 71.4039L516.886 71.0455ZM516.841 47.4091L515.907 47.0524L515.904 47.0598L516.841 47.4091ZM546.068 70.8636L545.131 70.5152L545.129 70.5199L546.068 70.8636ZM540.523 78.9091L541.143 79.6938L541.149 79.689L540.523 78.9091ZM522.477 79L521.859 79.7857L521.869 79.7941L522.477 79ZM384.46 69.6925L394.84 27.3289L392.897 26.8529L382.517 69.2166L384.46 69.6925ZM382.67 70.4545H383.489V68.4545H382.67V70.4545ZM363.749 1.2537L381.703 69.7082L383.638 69.2008L365.683 0.746297L363.749 1.2537ZM348.216 2H364.716V0H348.216V2ZM331.274 69.6624L349.183 1.25326L347.249 0.746741L329.339 69.1558L331.274 69.6624ZM329.443 70.4091H330.307V68.4091H329.443V70.4091ZM311.699 1.23813L328.472 69.6472L330.414 69.171L313.642 0.76187L311.699 1.23813ZM294.534 2H312.67V0H294.534V2ZM321.769 93.8193L295.496 0.728384L293.572 1.27162L319.844 94.3625L321.769 93.8193ZM337.443 93.0909H320.807V95.0909H337.443V93.0909ZM355.164 28.4977L336.482 93.8159L338.405 94.3659L357.086 29.0477L355.164 28.4977ZM356.852 27.7727H356.125V29.7727H356.852V27.7727ZM376.45 93.8165L357.814 28.4984L355.891 29.0471L374.527 94.3653L376.45 93.8165ZM392.125 93.0909H375.489V95.0909H392.125V93.0909ZM410.072 26.8193L391.163 93.8193L393.087 94.3625L411.997 27.3625L410.072 26.8193ZM411.034 26.0909H393.869V28.0909H411.034V26.0909ZM2 15.1364V1H0V15.1364H2ZM29.7727 14.1364H1V16.1364H29.7727V14.1364ZM30.7727 94.0909V15.1364H28.7727V94.0909H30.7727ZM46.5 93.0909H29.7727V95.0909H46.5V93.0909ZM45.5 15.1364V94.0909H47.5V15.1364H45.5ZM75.2727 14.1364H46.5V16.1364H75.2727V14.1364ZM74.2727 1V15.1364H76.2727V1H74.2727ZM1 2H75.2727V0H1V2ZM109.648 94.4546C102.788 94.4546 96.9205 93.0301 92.0075 90.2227L91.0152 91.9592C96.2841 94.9699 102.507 96.4546 109.648 96.4546V94.4546ZM123.74 92.0679C119.664 93.6514 114.972 94.4546 109.648 94.4546V96.4546C115.172 96.4546 120.116 95.6214 124.464 93.9321L123.74 92.0679ZM133.722 85.3314C131.141 88.203 127.821 90.4533 123.734 92.0701L124.47 93.9299C128.808 92.2134 132.397 89.797 135.21 86.6686L133.722 85.3314ZM139.039 75.1314C138.107 79.0336 136.335 82.4279 133.723 85.331L135.209 86.669C138.051 83.5115 139.976 79.8149 140.984 75.5959L139.039 75.1314ZM124.536 74.6301L139.9 76.3574L140.123 74.3699L124.759 72.6426L124.536 74.6301ZM122.104 79.3209C123.65 77.8733 124.809 76.087 125.586 73.9827L123.71 73.29C123.032 75.1251 122.039 76.6419 120.737 77.8609L122.104 79.3209ZM116.713 82.5774C118.774 81.837 120.575 80.7526 122.104 79.3209L120.737 77.8609C119.418 79.0959 117.855 80.0418 116.037 80.6953L116.713 82.5774ZM109.875 83.6364C112.361 83.6364 114.64 83.2901 116.7 82.5821L116.05 80.6907C114.231 81.3159 112.176 81.6364 109.875 81.6364V83.6364ZM100.017 81.2331C102.858 82.8471 106.155 83.6364 109.875 83.6364V81.6364C106.443 81.6364 103.498 80.9105 101.005 79.4942L100.017 81.2331ZM93.3953 74.1857C94.9631 77.2252 97.1693 79.5826 100.01 81.2288L101.013 79.4984C98.5201 78.0538 96.5748 75.9869 95.1728 73.2689L93.3953 74.1857ZM91.0594 63.6943C91.1093 67.6992 91.8744 71.2059 93.3934 74.1819L95.1748 73.2727C93.8243 70.6268 93.1062 67.4365 93.0593 63.6694L91.0594 63.6943ZM140.693 62.6818H92.0594V64.6818H140.693V62.6818ZM139.693 58.6364V63.6818H141.693V58.6364H139.693ZM137.214 43.1763C138.856 47.4583 139.693 52.6036 139.693 58.6364H141.693C141.693 52.4267 140.833 47.0266 139.081 42.4601L137.214 43.1763ZM130.452 32.5362C133.302 35.2988 135.56 38.8355 137.213 43.1742L139.082 42.4622C137.341 37.8918 134.933 34.0952 131.844 31.1002L130.452 32.5362ZM120.632 26.3971C124.342 27.7118 127.612 29.7547 130.448 32.5326L131.847 31.1037C128.805 28.124 125.287 25.9245 121.3 24.512L120.632 26.3971ZM108.784 24.3636C112.977 24.3636 116.921 25.0424 120.623 26.3939L121.309 24.5152C117.374 23.0788 113.197 22.3636 108.784 22.3636V24.3636ZM91.9017 28.8046C96.6607 25.8558 102.276 24.3636 108.784 24.3636V22.3636C101.959 22.3636 95.9681 23.9321 90.8483 27.1045L91.9017 28.8046ZM80.722 41.133C83.4007 35.8344 87.1253 31.7349 91.8979 28.8069L90.8521 27.1022C85.7459 30.2348 81.7735 34.6202 78.9371 40.2306L80.722 41.133ZM76.7386 59.5909C76.7386 52.5367 78.0775 46.3926 80.723 41.131L78.9361 40.2326C76.127 45.8195 74.7386 52.2815 74.7386 59.5909H76.7386ZM80.722 78.1851C78.0787 72.9573 76.7386 66.7695 76.7386 59.5909H74.7386C74.7386 67.0184 76.1259 73.5275 78.9371 79.0876L80.722 78.1851ZM92.0136 90.2262C87.1246 87.3864 83.3635 83.3801 80.7209 78.1831L78.9382 79.0896C81.7502 84.6199 85.777 88.9166 91.0091 91.9556L92.0136 90.2262ZM93.3114 44.5283C91.9966 46.9865 91.2582 49.6588 91.092 52.5332L93.0887 52.6486C93.2388 50.0523 93.9023 47.664 95.075 45.4717L93.3114 44.5283ZM99.6141 37.7906C96.924 39.488 94.8197 41.7365 93.3134 44.5247L95.073 45.4753C96.4152 42.9908 98.2805 40.9969 100.681 39.4821L99.6141 37.7906ZM109.011 35.1818C105.478 35.1818 102.331 36.0438 99.607 37.7952L100.688 39.4775C103.055 37.9562 105.817 37.1818 109.011 37.1818V35.1818ZM117.8 37.4617C115.26 35.9308 112.318 35.1818 109.011 35.1818V37.1818C112.007 37.1818 114.581 37.8571 116.768 39.1747L117.8 37.4617ZM123.756 43.709C122.338 41.0662 120.347 38.9771 117.795 37.4588L116.773 39.1776C119.009 40.5078 120.745 42.3278 121.994 44.6546L123.756 43.709ZM125.92 52.5813C125.889 49.2875 125.175 46.3203 123.754 43.7045L121.996 44.6592C123.242 46.9525 123.892 49.5912 123.921 52.6005L125.92 52.5813ZM92.0904 53.5909H124.92V51.5909H92.0904V53.5909ZM185.068 94.4546C178.248 94.4546 172.451 92.9583 167.636 90.0107L166.592 91.7165C171.776 94.8902 177.949 96.4546 185.068 96.4546V94.4546ZM199.901 91.3746C195.731 93.4161 190.796 94.4546 185.068 94.4546V96.4546C191.037 96.4546 196.284 95.3718 200.781 93.1709L199.901 91.3746ZM209.781 82.8105C207.369 86.4427 204.083 89.2984 199.896 91.3771L200.786 93.1684C205.266 90.944 208.828 87.8604 211.447 83.9168L209.781 82.8105ZM213.98 70.1478C213.599 74.9336 212.193 79.1477 209.779 82.8135L211.449 83.9137C214.064 79.9432 215.568 75.3997 215.974 70.3068L213.98 70.1478ZM199.25 71.2273H214.977V69.2273H199.25V71.2273ZM197.371 77.2319C198.778 75.3351 199.724 73.0538 200.232 70.4166L198.268 70.038C197.807 72.431 196.965 74.4225 195.765 76.0408L197.371 77.2319ZM192.14 81.5818C194.227 80.5709 195.974 79.1171 197.371 77.2319L195.765 76.0408C194.556 77.6708 193.06 78.9139 191.269 79.7818L192.14 81.5818ZM185.205 83.0455C187.756 83.0455 190.073 82.5665 192.134 81.5847L191.275 79.779C189.518 80.6153 187.502 81.0455 185.205 81.0455V83.0455ZM175.669 80.1319C178.4 82.0828 181.593 83.0455 185.205 83.0455V81.0455C181.968 81.0455 179.191 80.19 176.831 78.5045L175.669 80.1319ZM169.461 71.8345C170.913 75.3681 172.97 78.149 175.658 80.124L176.842 78.5124C174.499 76.7904 172.648 74.3289 171.311 71.0746L169.461 71.8345ZM167.295 59.1818C167.295 64.0332 168.006 68.2587 169.46 71.8316L171.313 71.0775C169.979 67.8019 169.295 63.8456 169.295 59.1818H167.295ZM169.463 46.7081C168.006 50.2227 167.295 54.3899 167.295 59.1818H169.295C169.295 54.5798 169.979 50.6864 171.31 47.4738L169.463 46.7081ZM175.766 38.5453C173.042 40.4584 170.95 43.1955 169.466 46.701L171.307 47.4808C172.671 44.2591 174.548 41.8447 176.916 40.182L175.766 38.5453ZM185.205 35.6364C181.649 35.6364 178.488 36.6013 175.76 38.5499L176.922 40.1774C179.285 38.4896 182.033 37.6364 185.205 37.6364V35.6364ZM195.398 39.3246C192.81 36.8364 189.375 35.6364 185.205 35.6364V37.6364C188.974 37.6364 191.872 38.7091 194.011 40.7663L195.398 39.3246ZM200.233 48.2687C199.559 44.7063 197.944 41.7097 195.388 39.3156L194.021 40.7753C196.253 42.8661 197.669 45.4755 198.267 48.6404L200.233 48.2687ZM214.977 47.4545H199.25V49.4545H214.977V47.4545ZM209.701 35.8426C212.195 39.4382 213.628 43.6561 213.98 48.5266L215.975 48.3824C215.599 43.1924 214.063 38.6224 211.344 34.7028L209.701 35.8426ZM199.598 27.4054C203.841 29.3949 207.199 32.2062 209.699 35.8395L211.347 34.7059C208.634 30.7635 204.993 27.7263 200.447 25.5946L199.598 27.4054ZM184.977 24.3636C190.52 24.3636 195.383 25.3857 199.591 27.4018L200.455 25.5982C195.935 23.4325 190.768 22.3636 184.977 22.3636V24.3636ZM167.772 28.8074C172.591 25.8578 178.313 24.3636 184.977 24.3636V22.3636C178.005 22.3636 171.909 23.9301 166.728 27.1016L167.772 28.8074ZM156.599 41.129C159.246 35.834 162.969 31.7361 167.771 28.8083L166.729 27.1007C161.592 30.2336 157.617 34.6205 154.81 40.2346L156.599 41.129ZM152.614 59.4545C152.614 52.4935 153.952 46.3943 156.598 41.131L154.811 40.2326C152.003 45.8179 150.614 52.2338 150.614 59.4545H152.614ZM156.511 77.7406C153.922 72.475 152.614 66.3878 152.614 59.4545H150.614C150.614 66.6425 151.972 73.0402 154.716 78.623L156.511 77.7406ZM167.638 90.0122C162.832 87.0526 159.125 82.9678 156.508 77.7346L154.719 78.629C157.497 84.1837 161.456 88.5535 166.589 91.7151L167.638 90.0122ZM244.943 93.0909H228.489V95.0909H244.943V93.0909ZM243.943 53.1818V94.0909H245.943V53.1818H243.943ZM245.972 44.1168C244.603 46.6585 243.943 49.6938 243.943 53.1818H245.943C245.943 49.9426 246.556 47.2506 247.733 45.065L245.972 44.1168ZM251.736 38.3044C249.289 39.642 247.367 41.5853 245.977 44.1081L247.728 45.0737C248.943 42.8692 250.597 41.2065 252.696 40.0593L251.736 38.3044ZM260.034 36.2727C256.974 36.2727 254.199 36.9436 251.732 38.3066L252.7 40.0571C254.839 38.8746 257.276 38.2727 260.034 38.2727V36.2727ZM270.865 40.555C268.242 37.6655 264.583 36.2727 260.034 36.2727V38.2727C264.152 38.2727 267.221 39.5163 269.385 41.8995L270.865 40.555ZM274.761 52.1818C274.761 47.315 273.503 43.3901 270.857 40.5462L269.393 41.9084C271.596 44.2766 272.761 47.6547 272.761 52.1818H274.761ZM274.761 94.0909V52.1818H272.761V94.0909H274.761ZM290.216 93.0909H273.761V95.0909H290.216V93.0909ZM289.216 49.6364V94.0909H291.216V49.6364H289.216ZM286.326 35.7737C288.236 39.5075 289.216 44.1148 289.216 49.6364H291.216C291.216 43.8852 290.196 38.947 288.106 34.8627L286.326 35.7737ZM278.362 27.2805C281.785 29.2076 284.437 32.0256 286.323 35.7682L288.109 34.8682C286.055 30.7926 283.132 27.6712 279.343 25.5377L278.362 27.2805ZM266.17 24.3636C270.877 24.3636 274.929 25.3479 278.362 27.2805L279.343 25.5377C275.563 23.4096 271.161 22.3636 266.17 22.3636V24.3636ZM253.543 27.6502C256.793 25.484 260.979 24.3636 266.17 24.3636V22.3636C260.695 22.3636 256.094 23.5463 252.434 25.9861L253.543 27.6502ZM246.321 36.52C247.885 32.7565 250.289 29.81 253.542 27.6514L252.436 25.985C248.839 28.3718 246.184 31.6374 244.474 35.7528L246.321 36.52ZM244.58 37.1364H245.398V35.1364H244.58V37.1364ZM243.58 1V36.1364H245.58V1H243.58ZM228.489 2H244.58V0H228.489V2ZM229.489 94.0909V1H227.489V94.0909H229.489ZM453.148 94.4546C446.288 94.4546 440.42 93.0301 435.507 90.2227L434.515 91.9592C439.784 94.9699 446.008 96.4546 453.148 96.4546V94.4546ZM467.24 92.0679C463.164 93.6514 458.472 94.4546 453.148 94.4546V96.4546C458.672 96.4546 463.616 95.6214 467.964 93.9321L467.24 92.0679ZM477.222 85.3315C474.641 88.203 471.321 90.4533 467.234 92.0701L467.97 93.9299C472.308 92.2134 475.897 89.797 478.71 86.6685L477.222 85.3315ZM482.539 75.1314C481.607 79.0336 479.835 82.4279 477.223 85.331L478.709 86.669C481.551 83.5115 483.476 79.8149 484.484 75.5959L482.539 75.1314ZM468.036 74.6301L483.4 76.3574L483.623 74.3699L468.259 72.6426L468.036 74.6301ZM465.604 79.3209C467.15 77.8733 468.309 76.087 469.086 73.9828L467.21 73.29C466.532 75.1251 465.539 76.6419 464.237 77.8609L465.604 79.3209ZM460.213 82.5774C462.273 81.837 464.075 80.7526 465.604 79.3209L464.237 77.8609C462.918 79.0959 461.355 80.0418 459.537 80.6953L460.213 82.5774ZM453.375 83.6364C455.861 83.6364 458.14 83.2901 460.2 82.5821L459.55 80.6907C457.731 81.3159 455.676 81.6364 453.375 81.6364V83.6364ZM443.517 81.2331C446.358 82.8471 449.655 83.6364 453.375 83.6364V81.6364C449.943 81.6364 446.998 80.9105 444.505 79.4942L443.517 81.2331ZM436.895 74.1857C438.463 77.2252 440.669 79.5826 443.51 81.2288L444.513 79.4984C442.02 78.0538 440.075 75.9869 438.673 73.2689L436.895 74.1857ZM434.559 63.6943C434.609 67.6992 435.374 71.2059 436.893 74.1819L438.675 73.2727C437.324 70.6268 436.606 67.4365 436.559 63.6694L434.559 63.6943ZM484.193 62.6818H435.559V64.6818H484.193V62.6818ZM483.193 58.6364V63.6818H485.193V58.6364H483.193ZM480.714 43.1763C482.356 47.4583 483.193 52.6036 483.193 58.6364H485.193C485.193 52.4267 484.333 47.0266 482.581 42.4601L480.714 43.1763ZM473.952 32.5362C476.802 35.2988 479.06 38.8355 480.713 43.1742L482.582 42.4622C480.841 37.8918 478.433 34.0952 475.344 31.1002L473.952 32.5362ZM464.132 26.3971C467.842 27.7118 471.112 29.7547 473.948 32.5326L475.347 31.1038C472.305 28.124 468.787 25.9245 464.8 24.512L464.132 26.3971ZM452.284 24.3636C456.477 24.3636 460.421 25.0424 464.123 26.3939L464.809 24.5152C460.874 23.0788 456.697 22.3636 452.284 22.3636V24.3636ZM435.402 28.8046C440.161 25.8558 445.776 24.3636 452.284 24.3636V22.3636C445.459 22.3636 439.468 23.9321 434.348 27.1045L435.402 28.8046ZM424.222 41.133C426.901 35.8344 430.625 31.7349 435.398 28.8069L434.352 27.1022C429.246 30.2348 425.274 34.6202 422.437 40.2306L424.222 41.133ZM420.239 59.5909C420.239 52.5367 421.577 46.3926 424.223 41.131L422.436 40.2326C419.627 45.8195 418.239 52.2815 418.239 59.5909H420.239ZM424.222 78.1851C421.579 72.9573 420.239 66.7695 420.239 59.5909H418.239C418.239 67.0184 419.626 73.5275 422.437 79.0876L424.222 78.1851ZM435.514 90.2262C430.625 87.3864 426.863 83.3801 424.221 78.1831L422.438 79.0896C425.25 84.6199 429.277 88.9166 434.509 91.9556L435.514 90.2262ZM436.811 44.5284C435.497 46.9865 434.758 49.6588 434.592 52.5332L436.589 52.6486C436.739 50.0523 437.402 47.664 438.575 45.4716L436.811 44.5284ZM443.114 37.7906C440.424 39.488 438.32 41.7365 436.813 44.5247L438.573 45.4753C439.915 42.9908 441.781 40.9969 444.181 39.4821L443.114 37.7906ZM452.511 35.1818C448.978 35.1818 445.831 36.0438 443.107 37.7952L444.188 39.4775C446.555 37.9562 449.317 37.1818 452.511 37.1818V35.1818ZM461.3 37.4617C458.76 35.9308 455.818 35.1818 452.511 35.1818V37.1818C455.507 37.1818 458.081 37.8571 460.268 39.1747L461.3 37.4617ZM467.256 43.709C465.838 41.0662 463.847 38.9771 461.295 37.4588L460.273 39.1776C462.509 40.5078 464.245 42.3278 465.494 44.6546L467.256 43.709ZM469.42 52.5813C469.389 49.2876 468.675 46.3203 467.254 43.7045L465.496 44.6592C466.742 46.9525 467.392 49.5912 467.42 52.6005L469.42 52.5813ZM435.59 53.5909H468.42V51.5909H435.59V53.5909ZM499.841 94.0909V1H497.841V94.0909H499.841ZM515.023 93.0909H498.841V95.0909H515.023V93.0909ZM514.023 83.0909V94.0909H516.023V83.0909H514.023ZM515.977 82.0909H515.023V84.0909H515.977V82.0909ZM520.43 87.8634C518.887 85.9939 517.704 84.2499 516.865 82.6311L515.089 83.5508C516.009 85.3259 517.279 87.1879 518.888 89.1366L520.43 87.8634ZM526.474 92.4258C523.933 91.1407 521.924 89.6109 520.419 87.8502L518.899 89.1498C520.606 91.1466 522.84 92.829 525.571 94.2105L526.474 92.4258ZM535.977 94.3182C532.081 94.3182 528.93 93.6679 526.474 92.4258L525.571 94.2106C528.388 95.6352 531.873 96.3182 535.977 96.3182V94.3182ZM550.159 90.2526C545.998 92.9587 541.281 94.3182 535.977 94.3182V96.3182C541.643 96.3182 546.744 94.8595 551.25 91.9292L550.159 90.2526ZM560.072 78.3936C557.624 83.6137 554.315 87.5502 550.159 90.2526L551.25 91.9292C555.761 88.9952 559.3 84.75 561.883 79.2428L560.072 78.3936ZM563.75 59.2727C563.75 66.8342 562.509 73.1959 560.072 78.3936L561.883 79.2427C564.476 73.7132 565.75 67.0446 565.75 59.2727H563.75ZM559.986 40.0713C562.479 45.2337 563.75 51.621 563.75 59.2727H565.75C565.75 51.4093 564.445 44.7057 561.787 39.2015L559.986 40.0713ZM549.993 28.348C554.171 30.9592 557.506 34.8469 559.983 40.0651L561.79 39.2076C559.175 33.6986 555.602 29.4953 551.053 26.652L549.993 28.348ZM535.932 24.3636C541.146 24.3636 545.821 25.6934 549.986 28.3437L551.06 26.6563C546.558 23.7914 541.506 22.3636 535.932 22.3636V24.3636ZM526.308 26.3386C528.757 25.0438 531.946 24.3636 535.932 24.3636V22.3636C531.736 22.3636 528.197 23.0774 525.373 24.5705L526.308 26.3386ZM520.35 31.0323C521.792 29.2224 523.765 27.6543 526.3 26.3428L525.381 24.5663C522.644 25.9821 520.435 27.717 518.786 29.7859L520.35 31.0323ZM516.872 36.2654C517.68 34.6488 518.833 32.9066 520.345 31.0383L518.791 29.7799C517.212 31.7297 515.972 33.5936 515.083 35.371L516.872 36.2654ZM515.295 36.8182H515.977V34.8182H515.295V36.8182ZM514.295 1V35.8182H516.295V1H514.295ZM498.841 2H515.295V0H498.841V2ZM513.977 59.1818C513.977 63.7885 514.626 67.8666 515.95 71.3966L517.823 70.6943C516.601 67.4365 515.977 63.6054 515.977 59.1818H513.977ZM515.904 47.0598C514.61 50.5304 513.977 54.5781 513.977 59.1818H515.977C515.977 54.7552 516.587 50.9544 517.778 47.7583L515.904 47.0598ZM521.83 38.8376C519.203 40.8164 517.236 43.5722 515.907 47.0524L517.775 47.7658C518.992 44.5793 520.752 42.1533 523.033 40.4352L521.83 38.8376ZM531.386 35.8636C527.687 35.8636 524.483 36.8401 521.83 38.8376L523.033 40.4352C525.29 38.7356 528.056 37.8636 531.386 37.8636V35.8636ZM541.182 38.9379C538.522 36.8689 535.234 35.8636 531.386 35.8636V37.8636C534.872 37.8636 537.705 38.7675 539.954 40.5166L541.182 38.9379ZM547.052 47.2899C545.755 43.7786 543.805 40.9782 541.182 38.9379L539.954 40.5166C542.24 42.2946 543.988 44.7668 545.176 47.9829L547.052 47.2899ZM548.977 59.1818C548.977 54.7542 548.343 50.7849 547.052 47.2899L545.176 47.9829C546.37 51.2151 546.977 54.9428 546.977 59.1818H548.977ZM547.006 71.212C548.327 67.657 548.977 63.6419 548.977 59.1818H546.977C546.977 63.4491 546.355 67.2218 545.131 70.5153L547.006 71.212ZM541.149 79.689C543.765 77.5891 545.712 74.7467 547.007 71.2074L545.129 70.5199C543.94 73.7685 542.189 76.2897 539.897 78.1292L541.149 79.689ZM531.386 82.8182C535.21 82.8182 538.484 81.7946 541.143 79.6937L539.903 78.1245C537.653 79.9024 534.836 80.8182 531.386 80.8182V82.8182ZM521.869 79.7941C524.52 81.8233 527.711 82.8182 531.386 82.8182V80.8182C528.092 80.8182 525.343 79.9343 523.085 78.2059L521.869 79.7941ZM515.953 71.4039C517.309 74.9357 519.269 77.7466 521.859 79.7856L523.096 78.2144C520.837 76.4352 519.07 73.943 517.82 70.687L515.953 71.4039Z" fill="black" mask="url(#path-1-outside-1_2019_10)"/>
</svg>
